<svg width="12" height="9" viewBox="0 0 12 9" fill="none" xmlns="http://www.w3.org/2000/svg">
<path d="M11.1897 2.50446C11.1897 2.33705 11.1228 2.16964 11.0022 2.04911L10.0915 1.13839C9.97098 1.01786 9.80357 0.950892 9.63616 0.950892C9.46875 0.950892 9.30134 1.01786 9.1808 1.13839L4.78795 5.53795L2.8192 3.5625C2.69866 3.44196 2.53125 3.375 2.36384 3.375C2.19643 3.375 2.02902 3.44196 1.90848 3.5625L0.997768 4.47321C0.877232 4.59375 0.810268 4.76116 0.810268 4.92857C0.810268 5.09598 0.877232 5.26339 0.997768 5.38393L3.42188 7.80804L4.33259 8.71875C4.45313 8.83929 4.62054 8.90625 4.78795 8.90625C4.95536 8.90625 5.12277 8.83929 5.2433 8.71875L6.15402 7.80804L11.0022 2.95982C11.1228 2.83929 11.1897 2.67188 11.1897 2.50446Z" fill="white"/>
</svg>
