<svg width="55" height="55" viewBox="0 0 55 55" fill="none" xmlns="http://www.w3.org/2000/svg">
<g opacity="0.1">
<path d="M47.0938 35.4062C47.0938 46.2916 38.2709 55 27.5 55C16.7291 55 7.90625 46.2916 7.90625 35.4062C7.90625 24.5209 27.5 0 27.5 0C27.5 0 47.0938 24.6354 47.0938 35.4062Z" fill="#00D9E2"/>
<path d="M27.5 49.8437C19.5938 49.8437 13.0625 43.4271 13.0625 35.4062C13.0625 34.4896 13.8646 33.6875 14.7813 33.6875C15.6979 33.6875 16.5 34.4896 16.5 35.4062C16.5 41.4791 21.4271 46.4062 27.5 46.4062C28.4166 46.4062 29.2188 47.2084 29.2188 48.125C29.2188 49.0416 28.4166 49.8437 27.5 49.8437Z" fill="white"/>
</g>
</svg>
