<svg width="45" height="45" viewBox="0 0 45 45" fill="none" xmlns="http://www.w3.org/2000/svg">
<circle cx="22.5" cy="22.5" r="22.5" fill="white"/>
<circle cx="22.5" cy="22.5" r="22" stroke="black" stroke-opacity="0.06"/>
<g clip-path="url(#clip0)">
<path d="M23.3108 15.7994C23.3108 15.7994 23.3108 15.7994 23.3108 15.7994L21.6889 15.799C21.6431 15.799 21.5979 15.79 21.5556 15.7726C20.623 15.3888 20.0203 14.4888 20.0203 13.4798C20.0204 12.1124 21.1328 11 22.5001 11C23.8673 11 24.9795 12.1124 24.9795 13.4798C24.9795 14.4885 24.3769 15.3886 23.4443 15.7729C23.402 15.7904 23.3566 15.7994 23.3108 15.7994ZM21.7614 15.0984L23.2383 15.0989C23.8726 14.8098 24.2789 14.1814 24.2789 13.4798C24.2789 12.4987 23.4809 11.7005 22.5001 11.7005C21.519 11.7005 20.7207 12.4986 20.7207 13.4798C20.7208 14.1815 21.1271 14.8098 21.7614 15.0984Z" fill="#575C62"/>
<path d="M19.5401 17.9636L18.7656 16.5174L18.753 16.4939C18.6118 16.2303 18.2837 16.1311 18.0201 16.2723L17.545 16.5267C17.2813 16.6679 17.1821 16.996 17.3233 17.2596L17.3356 17.2826L18.1104 18.7293L19.5401 17.9636Z" fill="#909599"/>
<path d="M18.7641 18.3556L17.9893 16.9089L17.9771 16.886C17.8618 16.6708 17.9069 16.4127 18.0706 16.2483C18.0536 16.2553 18.0366 16.2632 18.02 16.2721L17.5449 16.5265C17.2813 16.6677 17.182 16.9959 17.3232 17.2595L17.3355 17.2824L18.1103 18.7291L19.5401 17.9634L19.5303 17.9452L18.7641 18.3556Z" fill="#777E84"/>
<path d="M23.3109 17.4242V15.7837V14.0146C23.3109 13.7155 23.0684 13.4731 22.7694 13.4731H22.2305C21.9314 13.4731 21.689 13.7156 21.689 14.0146V15.7831V17.4242L23.3109 17.4242Z" fill="#909599"/>
<path d="M22.4997 14.0146C22.4997 13.7626 22.6721 13.5514 22.9053 13.491C22.8618 13.4797 22.8164 13.4731 22.7694 13.4731H22.2305C21.9314 13.4731 21.689 13.7156 21.689 14.0146V15.7831V17.4242H22.4997V15.7831V14.0146Z" fill="#777E84"/>
<path d="M22.5 34.0001C27.3558 34.0001 31.2923 30.0637 31.2923 25.2078C31.2923 20.352 27.3558 16.4155 22.5 16.4155C17.6441 16.4155 13.7077 20.352 13.7077 25.2078C13.7077 30.0637 17.6441 34.0001 22.5 34.0001Z" fill="#BDC4CE"/>
<path d="M14.6884 25.2079C14.6884 20.5166 18.3626 16.6838 22.9904 16.4294C22.828 16.4204 22.6646 16.4155 22.5 16.4155C17.6441 16.4155 13.7077 20.352 13.7077 25.2078C13.7077 30.0637 17.6441 34.0001 22.5 34.0001C22.6646 34.0001 22.828 33.9952 22.9904 33.9863C18.3626 33.7319 14.6884 29.8991 14.6884 25.2079Z" fill="#ABB2BA"/>
<path d="M30.2832 25.2079C30.2832 27.3566 29.4118 29.3026 28.0033 30.7111V30.7115C26.5948 32.1205 24.6493 32.9915 22.5001 32.9915C18.2013 32.9915 14.7166 29.5067 14.7166 25.2079C14.7166 20.9091 18.2014 17.4243 22.5001 17.4243C26.7984 17.4243 30.2832 20.9091 30.2832 25.2079Z" fill="#E6E6E6"/>
<path d="M24.8467 30.6447C20.5479 30.6447 17.0632 27.1599 17.0632 22.8611C17.0632 21.3122 17.5157 19.8691 18.2955 18.6565C16.1427 20.0411 14.7166 22.4578 14.7166 25.2077C14.7166 29.5065 18.2014 32.9912 22.5002 32.9912C24.6493 32.9912 26.5949 32.1203 28.0034 30.7113V30.7109C28.3965 30.3177 28.7477 29.8826 29.0499 29.4129C27.8376 30.1925 26.395 30.6447 24.8467 30.6447Z" fill="#F2F2F2"/>
<path d="M30.2832 25.2079C30.2832 26.7569 29.8303 28.2004 29.0499 29.4132C28.7477 29.883 28.3965 30.3178 28.0033 30.711L22.5001 25.2079V17.4243C26.7984 17.4243 30.2832 20.9091 30.2832 25.2079Z" fill="#EF332D"/>
<path d="M22.5 31.9798C22.3065 31.9798 22.1497 31.823 22.1497 31.6295V29.8285C22.1497 29.6351 22.3065 29.4783 22.5 29.4783C22.6934 29.4783 22.8502 29.6351 22.8502 29.8285V31.6295C22.8502 31.823 22.6934 31.9798 22.5 31.9798Z" fill="#3F3E46"/>
<path d="M22.5 20.9368C22.3065 20.9368 22.1497 20.78 22.1497 20.5866V18.7856C22.1497 18.5921 22.3065 18.4353 22.5 18.4353C22.6934 18.4353 22.8502 18.5921 22.8502 18.7856V20.5866C22.8502 20.78 22.6934 20.9368 22.5 20.9368Z" fill="#3F3E46"/>
<path d="M25.7113 31.1196C25.5903 31.1196 25.4726 31.0568 25.4077 30.9444L24.9811 30.2056C24.8844 30.0381 24.9418 29.8239 25.1093 29.7272C25.2768 29.6304 25.491 29.6879 25.5878 29.8554L26.0144 30.5942C26.1111 30.7617 26.0537 30.9759 25.8862 31.0726C25.8309 31.1045 25.7708 31.1196 25.7113 31.1196Z" fill="#3F3E46"/>
<path d="M19.7158 20.7353C19.5948 20.7353 19.4771 20.6725 19.4122 20.5601L18.9856 19.8213C18.8889 19.6538 18.9463 19.4396 19.1138 19.3429C19.2814 19.2462 19.4956 19.3035 19.5923 19.4711L20.0189 20.2099C20.1156 20.3774 20.0582 20.5916 19.8907 20.6883C19.8355 20.7202 19.7752 20.7353 19.7158 20.7353Z" fill="#3F3E46"/>
<path d="M28.0613 28.7688C28.0019 28.7688 27.9417 28.7537 27.8865 28.7218L27.1477 28.2953C26.9802 28.1986 26.9228 27.9843 27.0195 27.8168C27.1162 27.6493 27.3305 27.5918 27.498 27.6886L28.2368 28.1152C28.4043 28.2119 28.4617 28.4261 28.365 28.5936C28.3 28.706 28.1824 28.7688 28.0613 28.7688Z" fill="#3F3E46"/>
<path d="M17.6768 22.7735C17.6174 22.7735 17.5572 22.7583 17.502 22.7265L16.7633 22.2999C16.5957 22.2032 16.5383 21.989 16.6351 21.8214C16.7318 21.6539 16.946 21.5965 17.1135 21.6932L17.8523 22.1198C18.0198 22.2165 18.0772 22.4308 17.9805 22.5983C17.9156 22.7106 17.7979 22.7735 17.6768 22.7735Z" fill="#3F3E46"/>
<path d="M27.3231 22.7735C27.2021 22.7735 27.0844 22.7107 27.0195 22.5983C26.9228 22.4308 26.9802 22.2165 27.1477 22.1198L27.8865 21.6932C28.054 21.5965 28.2682 21.6539 28.365 21.8214C28.4617 21.989 28.4043 22.2032 28.2368 22.2999L27.498 22.7265C27.4428 22.7583 27.3826 22.7735 27.3231 22.7735Z" fill="#3F3E46"/>
<path d="M16.9387 28.7688C16.8176 28.7688 16.6999 28.706 16.6351 28.5937C16.5383 28.4261 16.5957 28.2119 16.7633 28.1152L17.502 27.6886C17.6696 27.5918 17.8838 27.6493 17.9805 27.8168C18.0772 27.9843 18.0198 28.1986 17.8523 28.2953L17.1135 28.7219C17.0583 28.7537 16.9981 28.7688 16.9387 28.7688Z" fill="#3F3E46"/>
<path d="M25.2841 20.7353C25.2247 20.7353 25.1645 20.7202 25.1093 20.6884C24.9418 20.5916 24.8844 20.3774 24.9811 20.2099L25.4077 19.4711C25.5044 19.3036 25.7186 19.2461 25.8862 19.3429C26.0537 19.4396 26.1111 19.6539 26.0144 19.8214L25.5878 20.5602C25.5229 20.6725 25.4052 20.7353 25.2841 20.7353Z" fill="#3F3E46"/>
<path d="M19.2886 31.1196C19.2292 31.1196 19.169 31.1045 19.1138 31.0726C18.9463 30.9759 18.8889 30.7617 18.9856 30.5942L19.4122 29.8554C19.5089 29.6879 19.7231 29.6304 19.8907 29.7272C20.0582 29.8239 20.1156 30.0381 20.0189 30.2056L19.5923 30.9444C19.5274 31.0568 19.4097 31.1196 19.2886 31.1196Z" fill="#3F3E46"/>
<path d="M17.8789 25.5579H16.0779C15.8845 25.5579 15.7277 25.4011 15.7277 25.2077C15.7277 25.0142 15.8845 24.8574 16.0779 24.8574H17.8789C18.0724 24.8574 18.2292 25.0142 18.2292 25.2077C18.2292 25.4011 18.0724 25.5579 17.8789 25.5579Z" fill="#3F3E46"/>
<path d="M28.922 25.5579H27.121C26.9276 25.5579 26.7708 25.4011 26.7708 25.2077C26.7708 25.0142 26.9276 24.8574 27.121 24.8574H28.922C29.1154 24.8574 29.2723 25.0142 29.2723 25.2077C29.2723 25.4011 29.1154 25.5579 28.922 25.5579Z" fill="#3F3E46"/>
<path d="M25.6884 28.7462C25.5988 28.7462 25.5092 28.712 25.4408 28.6436L22.868 26.0711C22.7312 25.9343 22.7312 25.7125 22.868 25.5757C23.0049 25.4389 23.2266 25.4389 23.3634 25.5757L25.9361 28.1483C26.0729 28.2851 26.0729 28.5068 25.9361 28.6436C25.8677 28.712 25.778 28.7462 25.6884 28.7462Z" fill="#626A70"/>
<path d="M29.0499 29.4131C28.7477 29.8829 28.3965 30.3177 28.0033 30.7109L27.4803 30.1879C28.0355 29.9884 28.5614 29.7274 29.0499 29.4131Z" fill="#FF3D40"/>
<path d="M22.5 26.4087C23.1633 26.4087 23.7009 25.871 23.7009 25.2078C23.7009 24.5445 23.1633 24.0068 22.5 24.0068C21.8368 24.0068 21.2991 24.5445 21.2991 25.2078C21.2991 25.871 21.8368 26.4087 22.5 26.4087Z" fill="#3F3E46"/>
</g>
<defs>
<clipPath id="clip0">
<rect width="23" height="23" fill="white" transform="translate(11 11)"/>
</clipPath>
</defs>
</svg>
