<svg width="45" height="45" viewBox="0 0 45 45" fill="none" xmlns="http://www.w3.org/2000/svg">
<circle cx="22.5" cy="22.5" r="22.5" fill="white"/>
<circle cx="22.5" cy="22.5" r="22" stroke="black" stroke-opacity="0.06"/>
<g clip-path="url(#clip0)">
<path d="M34.1946 32.5403L32.3562 22.412C32.3379 22.3109 32.2752 22.2233 32.1853 22.1734L27.5583 19.5998C27.4982 19.5664 27.4309 19.5531 27.3647 19.5582L28.2066 30.4176L28.1784 30.4303L33.7159 32.9145C33.761 32.9347 33.8089 32.9447 33.8566 32.9447C33.932 32.9447 34.0068 32.9198 34.0683 32.8717C34.1687 32.7933 34.2173 32.6657 34.1946 32.5403Z" fill="#44C868"/>
<path d="M22.5 22.0602L17.7677 19.5954C17.711 19.5658 17.6481 19.5538 17.5862 19.5579C17.6026 19.5569 17.6191 19.557 17.6354 19.5583L16.7936 30.4177L22.3594 32.9147C22.4043 32.9348 22.4523 32.9448 22.5 32.9448V22.0602Z" fill="#44C868"/>
<path d="M17.6354 19.5582C17.5692 19.5531 17.5019 19.5664 17.4418 19.5998L12.8147 22.1733C12.7249 22.2233 12.6622 22.3108 12.6438 22.4119L10.8055 32.5403C10.7828 32.6656 10.8314 32.7932 10.9318 32.8717C10.9934 32.9198 11.0681 32.9447 11.1435 32.9447C11.1912 32.9447 11.2391 32.9347 11.2841 32.9145L16.7915 30.4438L17.6354 19.5582Z" fill="#4CE166"/>
<path d="M27.3646 19.5581C27.3191 19.5616 27.2741 19.5737 27.2323 19.5955L22.5 22.0603V32.9449C22.5 32.9449 22.5 32.9449 22.5 32.9449C22.5478 32.9449 22.5958 32.9349 22.6407 32.9147L28.2065 30.4178L27.3646 19.5581Z" fill="#4CE166"/>
<path d="M12.0868 25.4814L11.7133 27.5389L17.2431 24.6182L17.3715 22.9619L17.3928 22.6873L12.0868 25.4814Z" fill="#FFDB56"/>
<path d="M17.2929 23.9761L17.2431 24.6183L11.7133 27.539L10.8055 32.5404C10.7828 32.6658 10.8314 32.7934 10.9318 32.8719C10.9934 32.92 11.0681 32.9448 11.1435 32.9448C11.1912 32.9448 11.2391 32.9349 11.2841 32.9147L16.7915 30.4439L17.2929 23.9761Z" fill="#A8EEFC"/>
<path d="M22.5014 23.4177L17.3928 22.6873L17.2431 24.6182L22.5 32.6016V29.6986L19.3631 24.7591L22.5014 25.1344V23.4177Z" fill="#FFBB24"/>
<path d="M31.821 21.9709L29.5982 20.7346L27.494 21.2263L27.5203 21.5661L27.6242 22.9068L31.821 21.9709Z" fill="#FFBB24"/>
<path d="M27.8108 25.3144L27.6115 22.7436L27.4939 21.2263L22.5013 23.4179V25.1346L25.7625 23.7164L27.8108 25.3144Z" fill="#FFDB56"/>
<path d="M34.1945 32.5404L33.7328 29.9963L27.6242 22.9067L27.8109 25.3143L34.0754 32.8654C34.1706 32.7865 34.2167 32.6625 34.1945 32.5404Z" fill="#FFBB24"/>
<path d="M22.522 12.0554C19.8729 12.0554 17.7177 14.2089 17.7177 16.8558C17.7177 18.4932 18.4951 20.2511 20.0283 22.0807C21.1544 23.4245 22.2651 24.2888 22.3119 24.325C22.3738 24.3728 22.4479 24.3967 22.5221 24.3967C22.5962 24.3967 22.6704 24.3728 22.7323 24.325C22.779 24.2888 23.8898 23.4245 25.0159 22.0807C26.5491 20.2511 27.3264 18.4932 27.3264 16.8558C27.3264 14.2089 25.1711 12.0554 22.522 12.0554ZM24.3013 16.8558C24.3013 17.8376 23.5047 18.6335 22.522 18.6335C21.5394 18.6335 20.7428 17.8376 20.7428 16.8558C20.7428 15.8739 21.5394 15.078 22.522 15.078C23.5047 15.078 24.3013 15.874 24.3013 16.8558Z" fill="#FF4A4A"/>
<path d="M22.522 12.0554C22.312 12.0554 22.1052 12.069 21.9023 12.0953C24.2598 12.4 26.087 14.4186 26.087 16.8558C26.087 18.4932 25.3096 20.2511 23.7764 22.0807C23.0522 22.9449 22.3349 23.6102 21.9023 23.9851C22.1425 24.1931 22.2952 24.3121 22.3118 24.325C22.3737 24.3728 22.4478 24.3967 22.522 24.3967C22.5961 24.3967 22.6703 24.3728 22.7322 24.325C22.7789 24.2888 23.8897 23.4245 25.0158 22.0807C26.549 20.2511 27.3264 18.4932 27.3264 16.8558C27.3263 14.2089 25.1711 12.0554 22.522 12.0554Z" fill="#E7343F"/>
<path d="M22.6407 32.9147L24.7103 31.9862L22.5 29.6987V32.9448C22.5 32.9448 22.5 32.9448 22.5 32.9448C22.5478 32.9448 22.5957 32.9349 22.6407 32.9147Z" fill="#FFDB56"/>
<path d="M32.3561 22.4119C32.3377 22.3108 32.275 22.2233 32.1852 22.1733L31.8209 21.9707L27.6241 22.9066L33.7327 29.9961L32.3561 22.4119Z" fill="#1EA4E9"/>
<path d="M22.5 32.9447C22.5 32.9447 22.5 32.9447 22.5 32.9447V32.6016L17.2431 24.6182L16.7935 30.4177L22.3593 32.9146C22.4042 32.9348 22.4522 32.9447 22.5 32.9447Z" fill="#1EA4E9"/>
</g>
<defs>
<clipPath id="clip0">
<rect width="23.4" height="23.4" fill="white" transform="translate(10.8 10.8)"/>
</clipPath>
</defs>
</svg>
