<svg width="45" height="45" viewBox="0 0 45 45" fill="none" xmlns="http://www.w3.org/2000/svg">
<circle cx="22.5" cy="22.5" r="22.5" fill="white"/>
<circle cx="22.5" cy="22.5" r="22" stroke="black" stroke-opacity="0.06"/>
<g clip-path="url(#clip0)">
<path d="M26.9016 11.001H18.0984C17.1697 11.001 16.4141 11.7565 16.4141 12.6853V32.3166C16.4141 33.2453 17.1697 34.0009 18.0984 34.0009H26.9016C27.8303 34.0009 28.5859 33.2453 28.5859 32.3166V12.6853C28.5859 11.7565 27.8303 11.001 26.9016 11.001Z" fill="#78777E"/>
<path d="M26.9015 11.0002H25.6183C26.5471 11.0002 27.3026 11.7558 27.3026 12.6845V32.3159C27.3026 33.2446 26.5471 34.0002 25.6183 34.0002H26.9015C27.8303 34.0002 28.5858 33.2446 28.5858 32.3159V12.6845C28.5858 11.7558 27.8303 11.0002 26.9015 11.0002Z" fill="#57565C"/>
<path d="M26.5194 32.7632H18.4806C18.048 32.7632 17.6973 32.4126 17.6973 31.9799V13.0199C17.6973 12.5873 18.048 12.2366 18.4806 12.2366H26.5194C26.952 12.2366 27.3027 12.5873 27.3027 13.0199V31.9799C27.3027 32.4126 26.952 32.7632 26.5194 32.7632Z" fill="#66BAEA"/>
<path d="M26.5194 12.2366H25.3067C25.7393 12.2366 26.09 12.5873 26.09 13.0199V31.9799C26.09 32.4126 25.7393 32.7632 25.3067 32.7632H26.5194C26.952 32.7632 27.3027 32.4126 27.3027 31.9799V13.0199C27.3027 12.5873 26.952 12.2366 26.5194 12.2366Z" fill="#3AAAE4"/>
<path d="M23.8842 32.4904H21.1158C20.9298 32.4904 20.7789 32.3395 20.7789 32.1535C20.7789 31.9675 20.9298 31.8167 21.1158 31.8167H23.8842C24.0703 31.8167 24.2211 31.9675 24.2211 32.1535C24.2211 32.3395 24.0703 32.4904 23.8842 32.4904Z" fill="#67676B"/>
<path d="M25.546 11.1427C25.4828 11.0533 25.3802 11 25.2707 11H19.7294C19.6198 11 19.5172 11.0533 19.454 11.1427C19.3909 11.2323 19.3753 11.3468 19.4121 11.45C19.7016 12.2617 20.4752 12.8071 21.337 12.8071H23.6631C24.5249 12.8071 25.2985 12.2618 25.588 11.45C25.6247 11.3469 25.6091 11.2323 25.546 11.1427Z" fill="#78777E"/>
</g>
<defs>
<clipPath id="clip0">
<rect width="23" height="23" fill="white" transform="translate(11 11)"/>
</clipPath>
</defs>
</svg>
