<svg width="33" height="15" viewBox="0 0 33 15" fill="none" xmlns="http://www.w3.org/2000/svg">
<path d="M25.575 0C23.595 0 21.725 0.770023 20.3844 2.11065L16.5 5.54813L16.4931 5.54123L14.41 7.37686L14.4237 7.39059L10.7181 10.6769C9.83813 11.55 8.6694 12.0313 7.425 12.0313C4.85377 12.0313 2.76375 9.94815 2.76375 7.39065C2.76375 4.83315 4.85377 2.75002 7.425 2.75002C8.6694 2.75002 9.83813 3.2313 10.78 4.16625L12.3406 5.54813L14.4168 3.7125L12.6774 2.17252C11.2749 0.776919 9.41177 0.00689713 7.42494 0.00689713C3.32752 6.37243e-07 0 3.3138 0 7.39065C0 11.4675 3.32752 14.7813 7.425 14.7813C9.405 14.7813 11.2681 14.0113 12.6156 12.6776L16.5 9.23318L16.5069 9.24007L18.5831 7.39755L18.5762 7.39065L22.2818 4.11127C23.1619 3.2313 24.3306 2.75002 25.575 2.75002C28.1462 2.75002 30.2362 4.83315 30.2362 7.39065C30.2362 9.94815 28.1462 12.0313 25.575 12.0313C24.3306 12.0313 23.1619 11.55 22.22 10.6219L20.6594 9.24001L18.5831 11.0825L20.3225 12.6225C21.725 14.0181 23.5882 14.7812 25.5682 14.7812C29.6725 14.7813 33 11.4675 33 7.39065C33 3.3138 29.6725 0 25.575 0Z" fill="black"/>
</svg>
