<svg fill="none" height="42" viewBox="0 0 113 42" width="113" xmlns="http://www.w3.org/2000/svg"><g fill="#545557"><path d="m47.4763 18.0086h-1.2378v-17.750788h9.7195v1.139918h-8.4817v7.52439h8.0081v1.15398h-8.0081z"/><path d="m57.9602 10.2731v7.7355h-1.2378v-17.750788h4.2198c2.1989 0 3.8258.408119 4.8761 1.219668 1.0502.81154 1.5754 2.0359 1.5754 3.67306 0 1.19152-.3142 2.1907-.9378 3.01163-.6282.81624-1.58 1.40262-2.86 1.75913l4.8152 8.0873h-1.4816l-4.5761-7.7355zm0-1.06952h3.3852c1.4956 0 2.6584-.33307 3.4836-1.00388.8252-.66612 1.2378-1.65124 1.2378-2.95534 0-1.35101-.4032-2.33612-1.2144-2.95065-.8111-.61452-2.1286-.92413-3.9571-.92413h-2.9351z"/><path d="m79.1949 18.0086h-9.6961v-17.750788h9.6961v1.139918h-8.4583v6.71284h7.9847v1.14461h-7.9847v7.60882h8.4583z"/><path d="m91.015 13.4304c0 1.4823-.5439 2.6551-1.6317 3.5182-1.0877.8679-2.5318 1.2994-4.3369 1.2994-2.1662 0-3.8306-.2392-4.984-.7177v-1.2384c1.2753.5441 2.9069.8115 4.8902.8115 1.4581 0 2.6115-.333 3.4649-.9992.8533-.6661 1.28-1.5433 1.28-2.6269 0-.6708-.1407-1.2291-.422-1.67-.286-.441-.7455-.8444-1.3832-1.2103-.6376-.3659-1.58-.75525-2.8131-1.17744-1.8145-.62391-3.0617-1.29472-3.7556-2.02183-.6892-.72242-1.0362-1.68877-1.0362-2.89436 0-1.32755.5205-2.41118 1.5566-3.24618 1.0409-.83969 2.3772-1.25719 4.0088-1.25719 1.6645 0 3.2304.314298 4.6933.947585l-.4501 1.069555c-1.4722-.61453-2.8788-.92413-4.2244-.92413-1.3129 0-2.3537.30491-3.132.91005s-1.1628 1.43076-1.1628 2.47686c0 .65674.1219 1.19621.3563 1.61371.2392.42219.6283.79747 1.1722 1.13522s1.4722.74118 2.7897 1.21028c1.3831.47849 2.424.9429 3.1179 1.38854.6939.45033 1.205.95693 1.5238 1.52923s.4783 1.2619.4783 2.0735z"/><path d="m105.629 18.0086h-1.252v-8.72997h-10.3614v8.72997h-1.2378v-17.750788h1.2378v7.880908h10.3614v-7.880908h1.252z"/><path d="m56.5256 37.4015-.8721-3.3259h-5.7623l-.9002 3.3259h-5.2653l5.7904-17.8212h6.3953l5.8607 17.8212zm-1.8661-7.2617-.7642-2.9131c-.1782-.6474-.3939-1.4871-.6518-2.5144-.2531-1.0273-.4219-1.7638-.5016-2.2095-.0751.4128-.2157 1.093-.4314 2.0406s-.6892 2.8146-1.4253 5.5964z"/><path d="m78.2947 28.5025c0 4.0202-1.28 6.7363-3.8353 8.1343l4.3323 4.9865h-5.9686l-3.132-3.9451-.0141-.0141v-.0141l-.014-.0141c-2.785 0-4.9184-.7787-6.4-2.3408-1.4863-1.5621-2.2271-3.8372-2.2271-6.8207 0-2.9507.7362-5.207 2.2131-6.7691 1.4769-1.5575 3.6243-2.3362 6.4374-2.3362 2.8226 0 4.9652.7741 6.4187 2.3174 1.4629 1.548 2.1896 3.8185 2.1896 6.816zm-12.2044 0c0 3.4339 1.1909 5.1461 3.5774 5.1461 1.2143 0 2.1145-.4175 2.7006-1.2478.5861-.835.8815-2.1344.8815-3.8983 0-1.7732-.2954-3.082-.8909-3.9263-.5954-.8444-1.4816-1.2666-2.6631-1.2666-2.4053-.0047-3.6055 1.7263-3.6055 5.1929z"/><path d="m94.5923 19.6506v10.6815c0 2.322-.6564 4.1234-1.9739 5.3946-1.3128 1.276-3.2117 1.9093-5.6826 1.9093-2.4193 0-4.276-.6192-5.5748-1.8577-1.2987-1.2384-1.9457-3.0163-1.9457-5.3383v-10.7894h4.8152v10.4141c0 1.2572.2344 2.1672.7033 2.7302.4688.5676 1.158.849 2.0723.849.9799 0 1.6879-.2814 2.1286-.8444.4408-.5629.6611-1.4823.6611-2.763v-10.3859z"/><path d="m107.214 37.4015-.872-3.3259h-5.762l-.9004 3.3259h-5.2653l5.7857-17.8212h6.395l5.861 17.8212zm-1.871-7.2617-.764-2.9131c-.178-.6474-.394-1.4871-.652-2.5144-.253-1.0273-.421-1.7638-.501-2.2095-.075.4128-.216 1.093-.432 2.0406-.215.9476-.689 2.8146-1.425 5.5964z"/></g><path d="m36.7774.40332h-36.7774v36.79628h36.7774z" fill="#00b2f0"/><path clip-rule="evenodd" d="m36.7774 37.1949h-36.7774l36.7774-36.79158z" fill="#0385b3" fill-rule="evenodd"/><path d="m27.335 21.6303c0-.0187 0-.0328 0-.0516 0-.0328 0-.0656-.0047-.0985-.2344-7.3602-8.9412-14.61716-8.9412-14.61716s-8.70669 7.26166-8.94112 14.62186c0 .0329.00001.0657-.00468.0985v.0469.1502.1641.0141c.09377 4.8599 4.065 8.7722 8.9458 8.7722 4.8809 0 8.8474-3.9123 8.9412-8.7722v-.0141c0-.0562 0-.1078 0-.1641.0047-.047.0047-.0986.0047-.1502zm-2.982.2627v.0094c-.0328 1.5715-.6657 3.0398-1.7863 4.1375-1.1206 1.1024-2.6022 1.7075-4.1776 1.7075-.2906 0-.5766-.0187-.858-.061 3.2399-1.9327 5.4107-5.4744 5.4107-9.518 0-.455-.0282-.9007-.0797-1.3417.9377 1.7217 1.4441 3.3307 1.4909 4.7474v.0046.0657.0329.1032z" fill="#fff"/></svg>