<svg width="119" height="38" viewBox="0 0 119 38" fill="none" xmlns="http://www.w3.org/2000/svg">
<path d="M46.5348 28.493L48.3811 19.0137H52.0185C52.5696 19.0137 53.0656 19.0963 53.4514 19.2892C53.8923 19.5097 54.223 19.8128 54.471 20.2261C54.719 20.6395 54.8292 21.1355 54.8292 21.6866C54.8292 22.4858 54.6363 23.1747 54.223 23.836C53.8372 24.4698 53.3136 24.9383 52.6523 25.2414C52.2114 25.4618 51.7154 25.5445 51.1918 25.5445H49.4282L48.8495 28.493H46.5348ZM49.814 23.5604H50.9438C51.2745 23.5604 51.5225 23.5053 51.7154 23.3676C52.2114 23.0369 52.4318 22.5684 52.4318 21.9071C52.4318 21.6315 52.3492 21.4111 52.2114 21.2457C52.0461 21.0804 51.7981 20.9977 51.4949 20.9977H50.31L49.814 23.5604Z" fill="#2D2D2D"/>
<path d="M54.6914 28.493L56.5377 19.0137H60.1476C60.7262 19.0137 61.1947 19.0963 61.5805 19.2892C62.0489 19.5097 62.3796 19.8128 62.6276 20.2261C62.8481 20.6395 62.9859 21.1355 62.9859 21.6866C62.9859 22.4858 62.7654 23.1747 62.3796 23.836C61.9663 24.4698 61.4427 24.9383 60.8089 25.2414C60.3405 25.4618 59.872 25.5445 59.3484 25.5445H57.5848L57.0062 28.493H54.6914ZM57.9706 23.5604H59.0729C59.4035 23.5604 59.6791 23.5053 59.872 23.3676C60.3405 23.0369 60.5885 22.5684 60.5885 21.9071C60.5885 21.6315 60.5058 21.4111 60.3405 21.2457C60.1751 21.0804 59.9271 20.9977 59.624 20.9977H58.4666L57.9706 23.5604Z" fill="#2D2D2D"/>
<path d="M62.7654 28.493L64.6117 19.0137H66.9264L65.4659 26.509H69.3513L68.938 28.493H62.7654Z" fill="#2D2D2D"/>
<path d="M70.0678 28.493L75.0004 19.0137H77.6733L78.996 28.493H76.6813L76.4884 26.509H73.5123L72.5479 28.493H70.0678ZM74.4217 24.6351H76.3231L76.0199 21.3284C75.3586 22.6786 75.0004 23.4227 74.4217 24.6351Z" fill="#2D2D2D"/>
<path d="M80.1258 28.493L81.9721 19.0137H84.2041L85.9677 23.4227L86.3535 24.3871L86.4637 24.6627C86.8495 22.6786 87.1802 20.9702 87.566 19.0137H89.8807L88.0345 28.493H85.8024C85.0308 26.5916 84.2868 24.7178 83.5428 22.8164C83.157 24.7729 82.8263 26.5365 82.4405 28.493H80.1258Z" fill="#2D2D2D"/>
<path d="M90.0461 25.2965C90.5145 25.7098 91.0381 25.9578 91.6443 26.2058C92.0301 26.3436 92.4435 26.4263 92.8292 26.4263C93.1048 26.4263 93.3528 26.3436 93.5733 26.2334C93.8213 26.0956 93.9315 25.9027 93.9315 25.6272C93.9315 25.2414 93.3253 24.9107 93.0221 24.7729C92.7741 24.6627 92.4986 24.5249 92.223 24.332C91.9199 24.1391 91.6443 23.9738 91.3963 23.7533C91.1483 23.5604 90.9279 23.2849 90.7625 22.9542C90.5972 22.6235 90.487 22.2653 90.487 21.8795C90.487 20.9977 90.8452 20.3088 91.5341 19.7852C92.223 19.2617 92.9946 19.0137 93.9039 19.0137C95.1991 19.0137 96.0533 19.3443 96.7422 19.8128L96.3289 21.9897C95.9706 21.6866 95.5849 21.4937 94.9511 21.2733C94.5928 21.1355 94.2346 21.0804 93.8764 21.0804C93.6008 21.0804 93.3528 21.1355 93.1048 21.2733C92.8568 21.4111 92.7466 21.604 92.7466 21.8795C92.7466 22.0173 92.8292 22.1826 92.9946 22.3204C93.1875 22.4582 93.3804 22.596 93.6559 22.7062C93.9039 22.844 94.1795 22.9818 94.4826 23.1471C94.7582 23.34 95.0337 23.5329 95.3093 23.7258C95.5573 23.9187 95.7778 24.1942 95.9431 24.5249C96.1084 24.8556 96.1911 25.2138 96.1911 25.6272C96.1911 26.3987 95.888 27.0876 95.2266 27.6388C94.5653 28.2174 93.7662 28.493 92.7741 28.493C92.1403 28.493 91.479 28.3828 90.8452 28.1623C90.3767 27.997 89.9634 27.749 89.6327 27.4734C89.6327 27.4734 89.6327 27.4734 89.6327 27.4459L90.0461 25.2965Z" fill="#2D2D2D"/>
<path d="M37.1106 20.116C34.107 14.274 27.3833 4.57425 14.3492 0.330601C11.4007 -0.60631 8.31437 0.495938 6.63344 3.08622C3.07869 8.5699 -1.9641 19.2342 0.874192 32.6265C1.53554 35.6576 4.04315 37.7795 7.12945 37.9448C13.6327 38.2755 25.4268 37.3386 35.595 28.1624C37.9097 26.0956 38.516 22.844 37.1106 20.116Z" fill="#2D2D2D" fill-opacity="0.301961"/>
<path d="M50.31 14.7149L49.9518 16.6438H49.1251L50.2825 10.6917H51.0265L50.9714 11.0499L50.8887 11.3806C51.054 11.1601 51.2745 10.9672 51.5225 10.8294C51.7705 10.6641 52.0736 10.5814 52.3767 10.5814C52.8727 10.5814 53.2585 10.7468 53.5616 11.0774C53.8372 11.3806 53.975 11.7939 53.975 12.345C53.975 13.1166 53.7545 13.778 53.2861 14.274C52.8176 14.7975 52.2665 15.0455 51.6603 15.0455C51.3847 15.0455 51.1091 14.9904 50.8887 14.8526C50.6682 14.7424 50.5029 14.5495 50.3927 14.3015H50.3651C50.3651 14.4393 50.3376 14.5495 50.31 14.7149ZM50.6131 13.2544C50.6131 13.5851 50.6958 13.8331 50.8611 14.026C51.0265 14.2464 51.2745 14.3566 51.5776 14.3566C51.9634 14.3566 52.3216 14.1637 52.6523 13.8055C52.983 13.4473 53.1483 12.9788 53.1483 12.4001C53.1483 12.0695 53.0656 11.7939 52.9003 11.601C52.7074 11.4081 52.4869 11.2979 52.1838 11.2979C51.7429 11.2979 51.3847 11.5183 51.0816 11.9041C50.7785 12.2899 50.6131 12.7584 50.6131 13.2544ZM54.3608 13.9708C54.3608 13.6953 54.4434 13.4748 54.5537 13.2819C54.6914 13.0615 54.8292 12.9237 55.0221 12.7859C55.215 12.6757 55.4355 12.5655 55.711 12.5104C55.959 12.4277 56.207 12.3726 56.455 12.345C56.703 12.3175 56.9235 12.2899 57.1991 12.2899H57.4195C57.4195 12.1797 57.4471 12.0695 57.4471 11.9317C57.4471 11.4908 57.1715 11.2979 56.6755 11.2979C56.2346 11.2979 55.8212 11.4081 55.4079 11.6837L55.1875 11.0499C55.3528 10.9121 55.6008 10.8294 55.8764 10.7192C56.1795 10.6365 56.4826 10.5814 56.7857 10.5814C57.2266 10.5814 57.5848 10.6917 57.8604 10.8846C58.136 11.105 58.2737 11.4081 58.2737 11.849C58.2737 11.9592 58.2462 12.097 58.2186 12.2899L57.7226 14.9629H56.9511L57.0337 14.522L57.1164 14.1913H57.0888C56.9786 14.3842 56.7857 14.5771 56.5377 14.77C56.2621 14.9629 55.959 15.0455 55.6284 15.0455C55.2701 15.0455 54.967 14.9629 54.7466 14.77C54.4986 14.5495 54.3608 14.3015 54.3608 13.9708ZM55.1875 13.8331C55.1875 13.9984 55.2426 14.1362 55.3528 14.2464C55.463 14.3566 55.6284 14.4117 55.8764 14.4117C56.1795 14.4117 56.4826 14.274 56.7582 13.9708C57.0337 13.6953 57.1991 13.3922 57.2817 13.0339L57.3093 12.8962H57.0888C55.8212 12.8962 55.1875 13.1993 55.1875 13.8331ZM58.632 14.4393L59.0178 13.9157C59.1555 14.0535 59.2933 14.1637 59.4862 14.2464C59.6791 14.3566 59.8996 14.3842 60.12 14.3842C60.368 14.3842 60.616 14.3291 60.8089 14.1637C61.0018 14.026 61.112 13.8055 61.112 13.5575C61.112 13.2268 60.864 13.0615 60.368 13.0615H59.8445L59.9547 12.4553H60.4231C60.6711 12.4553 60.8916 12.4001 61.0845 12.2624C61.2498 12.1521 61.36 11.9592 61.36 11.7112C61.36 11.4081 61.112 11.2428 60.6711 11.2428C60.3129 11.2428 59.9547 11.353 59.5964 11.601L59.3484 11.0499C59.7618 10.7468 60.2578 10.5814 60.8365 10.5814C61.2498 10.5814 61.5805 10.6917 61.8009 10.857C62.0489 11.0499 62.1867 11.2979 62.1867 11.601C62.1867 11.8766 62.1041 12.097 61.9663 12.2899C61.8285 12.4828 61.6081 12.6482 61.36 12.7308V12.7584C61.7458 12.8962 61.9387 13.1717 61.9387 13.6126C61.9387 14.0535 61.7734 14.3842 61.4152 14.6598C61.0845 14.9078 60.6436 15.0455 60.1751 15.0455C59.872 15.0455 59.5689 14.9904 59.2933 14.8802C59.0178 14.77 58.7973 14.6322 58.632 14.4393ZM63.537 14.7149L63.1512 16.6438H62.3521L63.5094 10.6917H64.2534L64.1983 11.0499L64.0881 11.3806H64.1157C64.281 11.1601 64.4739 10.9672 64.7495 10.8294C64.9975 10.6641 65.273 10.5814 65.6037 10.5814C66.0997 10.5814 66.4855 10.7468 66.7611 11.0774C67.0642 11.3806 67.202 11.7939 67.202 12.345C67.202 13.1166 66.954 13.778 66.4855 14.274C66.0446 14.7975 65.4935 15.0455 64.8872 15.0455C64.5841 15.0455 64.3361 14.9904 64.1157 14.8526C63.8677 14.7424 63.7023 14.5495 63.5921 14.3015C63.5921 14.4393 63.5645 14.5495 63.537 14.7149ZM63.8401 13.2544C63.8401 13.5851 63.9228 13.8331 64.0881 14.026C64.2534 14.2464 64.4739 14.3566 64.8046 14.3566C65.1904 14.3566 65.5486 14.1637 65.8793 13.8055C66.2099 13.4473 66.3753 12.9788 66.3753 12.4001C66.3753 12.0695 66.265 11.7939 66.0997 11.601C65.9344 11.4081 65.6864 11.2979 65.3832 11.2979C64.9699 11.2979 64.6117 11.5183 64.3086 11.9041C64.0054 12.2899 63.8401 12.7584 63.8401 13.2544ZM67.5877 13.9708C67.5877 13.6953 67.6429 13.4748 67.7806 13.2819C67.8909 13.0615 68.0562 12.9237 68.2491 12.7859C68.442 12.6757 68.6624 12.5655 68.9104 12.5104C69.186 12.4277 69.434 12.3726 69.682 12.345C69.9025 12.3175 70.1505 12.2899 70.3985 12.2899H70.6189C70.6465 12.1797 70.674 12.0695 70.674 11.9317C70.674 11.4908 70.3985 11.2979 69.8749 11.2979C69.4616 11.2979 69.0482 11.4081 68.6073 11.6837L68.3869 11.0499C68.5798 10.9121 68.8002 10.8294 69.1033 10.7192C69.4065 10.6365 69.7096 10.5814 70.0127 10.5814C70.4536 10.5814 70.8118 10.6917 71.0598 10.8846C71.3354 11.105 71.4732 11.4081 71.4732 11.849C71.4732 11.9592 71.4732 12.097 71.4456 12.2899L70.922 14.9629H70.178L70.2607 14.522L70.3434 14.1913H70.3158C70.2056 14.3842 70.0127 14.5771 69.7371 14.77C69.4891 14.9629 69.186 15.0455 68.8553 15.0455C68.4971 15.0455 68.194 14.9629 67.946 14.77C67.7255 14.5495 67.5877 14.3015 67.5877 13.9708ZM68.3869 13.8331C68.3869 13.9984 68.4695 14.1362 68.5798 14.2464C68.69 14.3566 68.8553 14.4117 69.0758 14.4117C69.4065 14.4117 69.7096 14.274 69.9851 13.9708C70.2331 13.6953 70.426 13.3922 70.4811 13.0339L70.5087 12.8962H70.3158C69.0482 12.8962 68.3869 13.1993 68.3869 13.8331ZM72.355 13.1166C72.355 12.7308 72.4101 12.345 72.5203 11.9317C72.603 11.5183 72.7683 11.1601 72.9888 10.857C73.1817 10.5263 73.4297 10.2508 73.7603 10.0303C74.0635 9.80986 74.4492 9.58941 74.9177 9.42408L76.5711 8.79028L76.7364 9.45163L74.9453 10.1405C74.4768 10.3334 74.1186 10.5539 73.8706 10.8019C73.6226 11.0774 73.4572 11.3806 73.347 11.7939C73.7879 11.3255 74.2839 11.0774 74.8901 11.0774C75.3586 11.0774 75.7444 11.2152 76.0475 11.4908C76.3231 11.7939 76.4608 12.1797 76.4608 12.6482C76.4608 13.2819 76.2404 13.8606 75.7995 14.3291C75.331 14.8251 74.7799 15.0455 74.0635 15.0455C73.4848 15.0455 73.0714 14.8802 72.7683 14.522C72.4927 14.1913 72.355 13.7228 72.355 13.1166ZM73.1541 13.3371C73.1541 13.6677 73.2368 13.9157 73.4297 14.0811C73.6226 14.274 73.843 14.3566 74.1461 14.3566C74.5595 14.3566 74.9177 14.1913 75.1933 13.8882C75.4964 13.5575 75.6342 13.1717 75.6342 12.7584C75.6342 12.4277 75.5515 12.1797 75.3586 12.0144C75.1933 11.8215 74.9453 11.7388 74.6697 11.7388C74.2563 11.7388 73.9257 11.9041 73.6226 12.2073C73.3194 12.5379 73.1541 12.9237 73.1541 13.3371ZM77.1773 13.1717C77.1773 12.4553 77.4529 11.849 77.9764 11.353C78.5 10.857 79.1062 10.5814 79.7951 10.5814C80.4014 10.5814 80.8974 10.7743 81.2556 11.105C81.6414 11.4632 81.8343 11.9041 81.8343 12.4553C81.8343 13.1717 81.5587 13.778 81.0076 14.3015C80.484 14.7975 79.8778 15.0455 79.1889 15.0455C78.6102 15.0455 78.1142 14.8802 77.7284 14.522C77.3702 14.1913 77.1773 13.7504 77.1773 13.1717ZM78.004 13.1442C78.004 13.5024 78.1142 13.8055 78.3347 14.026C78.5551 14.2464 78.8582 14.3566 79.2165 14.3566C79.6574 14.3566 80.0707 14.1637 80.4289 13.8055C80.8147 13.4473 80.9801 13.0064 80.9801 12.4828C80.9801 12.1521 80.8698 11.849 80.6494 11.6286C80.4289 11.4081 80.1534 11.2979 79.7951 11.2979C79.3267 11.2979 78.9133 11.4908 78.5551 11.849C78.1969 12.2073 78.004 12.6206 78.004 13.1442ZM83.1846 14.9629L83.8735 11.3806H82.3854L82.5232 10.6917H86.2984L86.1606 11.3806H84.7001L84.0112 14.9629H83.1846ZM86.2708 14.9629L87.0975 10.6917H87.9242L87.5935 12.4001H88.1722L89.6327 10.6917H90.5972L88.7785 12.8135V12.841L89.9358 14.9629H89.0265L88.062 13.1166H87.4558L87.0975 14.9629H86.2708ZM90.4594 13.9708C90.4594 13.6953 90.5145 13.4748 90.6523 13.2819C90.7625 13.0615 90.9278 12.9237 91.1207 12.7859C91.3136 12.6757 91.5341 12.5655 91.7821 12.5104C92.0577 12.4277 92.3057 12.3726 92.5537 12.345C92.7741 12.3175 93.0221 12.2899 93.2701 12.2899H93.4906C93.5181 12.1797 93.5457 12.0695 93.5457 11.9317C93.5457 11.4908 93.2701 11.2979 92.7741 11.2979C92.3332 11.2979 91.9199 11.4081 91.479 11.6837L91.2861 11.0499C91.4514 10.9121 91.6719 10.8294 91.975 10.7192C92.2781 10.6365 92.5812 10.5814 92.8843 10.5814C93.3252 10.5814 93.6835 10.6917 93.959 10.8846C94.2346 11.105 94.3724 11.4081 94.3724 11.849C94.3724 11.9592 94.3448 12.097 94.3173 12.2899L93.7937 14.9629H93.0497L93.1323 14.522L93.215 14.1913H93.1875C93.0772 14.3842 92.8843 14.5771 92.6088 14.77C92.3608 14.9629 92.0577 15.0455 91.727 15.0455C91.3687 15.0455 91.0656 14.9629 90.8176 14.77C90.5972 14.5495 90.4594 14.3015 90.4594 13.9708ZM91.2861 13.8331C91.2861 13.9984 91.3412 14.1362 91.4514 14.2464C91.5616 14.3566 91.727 14.4117 91.975 14.4117C92.2781 14.4117 92.5812 14.274 92.8568 13.9708C93.1048 13.6953 93.2977 13.3922 93.3803 13.0339V12.8962H93.1875C91.9199 12.8962 91.2861 13.1993 91.2861 13.8331ZM97.2107 13.1993C97.2107 12.4828 97.4862 11.8766 98.0098 11.353C98.5334 10.857 99.1396 10.5814 99.8561 10.5814C100.545 10.5814 101.069 10.8019 101.454 11.2152L100.986 11.7388C100.876 11.601 100.71 11.4908 100.49 11.4081C100.297 11.353 100.077 11.2979 99.8836 11.2979C99.3876 11.2979 98.9743 11.4908 98.5885 11.849C98.2302 12.2073 98.0649 12.6482 98.0649 13.1442C98.0649 13.5024 98.1751 13.8055 98.3956 14.026C98.616 14.2464 98.9191 14.3566 99.3049 14.3566C99.7734 14.3566 100.269 14.1637 100.71 13.778L100.958 14.4117C100.738 14.6046 100.49 14.77 100.159 14.8802C99.8561 14.9904 99.5254 15.0455 99.2223 15.0455C98.616 15.0455 98.12 14.8802 97.7618 14.5495C97.4036 14.1913 97.2107 13.7504 97.2107 13.1993ZM101.537 13.9708C101.537 13.6953 101.592 13.4748 101.73 13.2819C101.84 13.0615 102.005 12.9237 102.198 12.7859C102.391 12.6757 102.612 12.5655 102.86 12.5104C103.108 12.4277 103.356 12.3726 103.604 12.345C103.852 12.3175 104.1 12.2899 104.348 12.2899H104.568C104.596 12.1797 104.596 12.0695 104.596 11.9317C104.596 11.4908 104.348 11.2979 103.824 11.2979C103.411 11.2979 102.97 11.4081 102.557 11.6837L102.336 11.0499C102.501 10.9121 102.749 10.8294 103.053 10.7192C103.356 10.6365 103.659 10.5814 103.934 10.5814C104.375 10.5814 104.734 10.6917 105.009 10.8846C105.285 11.105 105.422 11.4081 105.422 11.849C105.422 11.9592 105.422 12.097 105.395 12.2899L104.871 14.9629H104.1L104.182 14.522L104.265 14.1913C104.127 14.3842 103.962 14.5771 103.686 14.77C103.411 14.9629 103.135 15.0455 102.777 15.0455C102.446 15.0455 102.143 14.9629 101.895 14.77C101.647 14.5495 101.537 14.3015 101.537 13.9708ZM102.336 13.8331C102.336 13.9984 102.391 14.1362 102.501 14.2464C102.639 14.3566 102.805 14.4117 103.025 14.4117C103.356 14.4117 103.631 14.274 103.907 13.9708C104.182 13.6953 104.348 13.3922 104.43 13.0339L104.458 12.8962H104.237C102.97 12.8962 102.336 13.1993 102.336 13.8331ZM109.005 10.1956C108.674 10.1956 108.398 10.113 108.206 9.94764C107.985 9.78231 107.875 9.58941 107.875 9.31385C107.875 9.23118 107.902 9.12096 107.93 9.01073H108.564C108.564 9.06585 108.536 9.14851 108.536 9.23118C108.536 9.36896 108.591 9.47919 108.674 9.56186C108.784 9.64453 108.894 9.67208 109.032 9.67208C109.225 9.67208 109.363 9.61697 109.501 9.50674C109.639 9.42408 109.721 9.23118 109.749 9.01073H110.41C110.355 9.42408 110.19 9.72719 109.914 9.92009C109.666 10.113 109.363 10.1956 109.005 10.1956ZM106.084 14.9629L106.91 10.6917H107.682L107.186 13.1993L107.048 13.778H107.076C107.241 13.5299 107.406 13.3371 107.572 13.1717L109.887 10.6917H110.686L109.859 14.9629H109.087L109.556 12.4553L109.694 11.8766C109.501 12.097 109.335 12.2899 109.198 12.4828L106.855 14.9629H106.084ZM112.119 14.9629L112.807 11.3806H111.347L111.485 10.6917H115.26L115.122 11.3806H113.634L112.945 14.9629H112.119ZM115.04 13.9708C115.04 13.6953 115.122 13.4748 115.232 13.2819C115.343 13.0615 115.508 12.9237 115.701 12.7859C115.894 12.6757 116.114 12.5655 116.39 12.5104C116.638 12.4277 116.886 12.3726 117.134 12.345C117.354 12.3175 117.602 12.2899 117.878 12.2899H118.071C118.098 12.1797 118.126 12.0695 118.126 11.9317C118.126 11.4908 117.85 11.2979 117.354 11.2979C116.913 11.2979 116.5 11.4081 116.087 11.6837L115.866 11.0499C116.032 10.9121 116.252 10.8294 116.555 10.7192C116.858 10.6365 117.161 10.5814 117.464 10.5814C117.905 10.5814 118.264 10.6917 118.539 10.8846C118.815 11.105 118.952 11.4081 118.952 11.849C118.952 11.9592 118.925 12.097 118.897 12.2899L118.374 14.9629H117.63L117.712 14.522L117.795 14.1913H117.768C117.657 14.3842 117.464 14.5771 117.189 14.77C116.941 14.9629 116.638 15.0455 116.307 15.0455C115.949 15.0455 115.646 14.9629 115.398 14.77C115.177 14.5495 115.04 14.3015 115.04 13.9708ZM115.866 13.8331C115.866 13.9984 115.921 14.1362 116.032 14.2464C116.142 14.3566 116.307 14.4117 116.555 14.4117C116.858 14.4117 117.161 14.274 117.437 13.9708C117.685 13.6953 117.878 13.3922 117.96 13.0339V12.8962H117.768C116.5 12.8962 115.866 13.1993 115.866 13.8331Z" fill="#2D2D2D" fill-opacity="0.501961"/>
<path fill-rule="evenodd" clip-rule="evenodd" d="M12.2273 9.53442L10.574 28.4931L18.455 24.9659L12.2273 9.53442Z" fill="#E3E3E3"/>
<path fill-rule="evenodd" clip-rule="evenodd" d="M18.4551 24.9659L27.3282 23.9463L12.2274 9.53442L18.4551 24.9659Z" fill="#FEFEFE"/>
<path d="M96.9902 28.438L97.376 26.3162H99.5254L99.1396 28.438H96.9902ZM100.352 28.438L102.171 19.0964H105.67C106.194 19.0964 106.662 19.1791 107.021 19.3169C107.958 19.7027 108.426 20.4191 108.426 21.4663C108.426 22.1001 108.261 22.7339 107.958 23.3401C107.627 23.9463 107.131 24.3597 106.47 24.6352V24.6628C106.552 24.773 106.607 24.9383 106.718 25.2139L107.93 28.438H105.45L104.403 25.2966H103.273L102.639 28.438H100.352ZM103.631 23.3401H104.623C105.037 23.3401 105.395 23.2023 105.67 22.9543C105.946 22.7063 106.084 22.3481 106.084 21.9072C106.084 21.6316 106.001 21.4112 105.808 21.2734C105.643 21.1356 105.422 21.0529 105.119 21.0529H104.1L103.631 23.3401ZM108.867 25.7099C108.867 25.4619 108.895 25.2139 108.95 24.9383L110.079 19.0964H112.367L111.209 25.021C111.182 25.1312 111.182 25.269 111.182 25.3792C111.182 25.7375 111.292 26.013 111.54 26.2335C111.788 26.4264 112.119 26.5091 112.559 26.5091C113.055 26.5091 113.469 26.3988 113.827 26.1233C114.158 25.8753 114.378 25.4895 114.461 25.021L115.618 19.0964H117.905L116.748 25.0761C116.528 26.1508 116.032 27.0051 115.288 27.6389C114.516 28.2726 113.579 28.6033 112.477 28.6033C111.457 28.6033 110.575 28.3553 109.887 27.8317C109.198 27.3082 108.867 26.6193 108.867 25.7099Z" fill="#2D2D2D"/>
</svg>
