<svg xmlns="http://www.w3.org/2000/svg"><defs><linearGradient id="a" x1="2.746" y1="27.254" x2="27.254" y2="2.746" gradientUnits="userSpaceOnUse"><stop stop-color="#FFC107"/><stop offset=".507" stop-color="#F44336"/><stop offset=".99" stop-color="#9C27B0"/></linearGradient><linearGradient id="b" x1="9.697" y1="20.303" x2="20.303" y2="9.697" gradientUnits="userSpaceOnUse"><stop stop-color="#FFC107"/><stop offset=".507" stop-color="#F44336"/><stop offset=".99" stop-color="#9C27B0"/></linearGradient><linearGradient id="c" x1="22.356" y1="7.644" x2="23.769" y2="6.231" gradientUnits="userSpaceOnUse"><stop stop-color="#FFC107"/><stop offset=".507" stop-color="#F44336"/><stop offset=".99" stop-color="#9C27B0"/></linearGradient></defs><symbol id="arrow-next" viewBox="0 0 45 8"><path d="M44.354 4.354a.5.5 0 0 0 0-.708L41.172.464a.5.5 0 1 0-.707.708L43.293 4l-2.828 2.828a.5.5 0 1 0 .707.708l3.182-3.182zM0 4.5h44v-1H0v1z" fill="#000"/></symbol><symbol id="arrow-prev" viewBox="0 0 45 8"><path d="M.646 3.646a.5.5 0 0 0 0 .708l3.182 3.182a.5.5 0 1 0 .708-.708L1.707 4l2.829-2.828a.5.5 0 1 0-.708-.708L.646 3.646zM45 3.5H1v1h44v-1z" fill="#000"/></symbol><symbol id="instagram" viewBox="0 0 30 30"><path d="M20.625 0H9.375C4.198 0 0 4.198 0 9.375v11.25C0 25.802 4.198 30 9.375 30h11.25C25.802 30 30 25.802 30 20.625V9.375C30 4.198 25.802 0 20.625 0zm6.563 20.625a6.57 6.57 0 0 1-6.563 6.563H9.375a6.57 6.57 0 0 1-6.563-6.563V9.375a6.57 6.57 0 0 1 6.563-6.563h11.25a6.57 6.57 0 0 1 6.563 6.563v11.25z" fill="url(#a)"/><path d="M15 7.5a7.5 7.5 0 1 0 0 15 7.5 7.5 0 0 0 0-15zm0 12.188A4.694 4.694 0 0 1 10.312 15 4.693 4.693 0 0 1 15 10.312 4.693 4.693 0 0 1 19.688 15 4.694 4.694 0 0 1 15 19.688z" fill="url(#b)"/><path d="M23.063 7.937a1 1 0 1 0 0-2 1 1 0 0 0 0 2z" fill="url(#c)"/></symbol><symbol id="logo" viewBox="0 0 113 42"><g fill="#545557"><path d="M47.476 18.009H46.24V.258h9.719v1.14h-8.482v7.524h8.008v1.154h-8.008zM57.96 10.273v7.736h-1.238V.258h4.22c2.2 0 3.826.408 4.876 1.22 1.05.811 1.576 2.035 1.576 3.673 0 1.191-.315 2.19-.938 3.011-.628.816-1.58 1.403-2.86 1.76l4.815 8.087H66.93l-4.577-7.736zm0-1.07h3.385c1.496 0 2.659-.332 3.484-1.003.825-.666 1.238-1.652 1.238-2.956 0-1.35-.403-2.336-1.215-2.95-.81-.615-2.128-.924-3.957-.924H57.96zM79.195 18.009h-9.696V.258h9.696v1.14h-8.458V8.11h7.984v1.144h-7.984v7.609h8.458zM91.015 13.43c0 1.483-.544 2.656-1.632 3.519-1.087.867-2.531 1.299-4.337 1.299-2.166 0-3.83-.24-4.984-.718v-1.238c1.276.544 2.907.811 4.89.811 1.459 0 2.612-.333 3.466-.999.853-.666 1.28-1.543 1.28-2.627 0-.67-.141-1.229-.422-1.67-.286-.44-.746-.844-1.384-1.21-.637-.366-1.58-.755-2.813-1.177-1.814-.624-3.061-1.295-3.755-2.022-.69-.723-1.037-1.689-1.037-2.895 0-1.327.52-2.41 1.557-3.246C82.884.417 84.221 0 85.853 0c1.664 0 3.23.314 4.693.948l-.45 1.07c-1.472-.615-2.879-.925-4.224-.925-1.313 0-2.354.305-3.132.91s-1.163 1.43-1.163 2.477c0 .657.122 1.196.356 1.614.24.422.628.797 1.172 1.135s1.472.741 2.79 1.21c1.383.479 2.424.943 3.118 1.389.694.45 1.205.957 1.524 1.529s.478 1.262.478 2.073zM105.629 18.009h-1.252v-8.73H94.016v8.73h-1.238V.258h1.238v7.88h10.361V.259h1.252zM56.526 37.401l-.873-3.325h-5.762l-.9 3.326h-5.265l5.79-17.822h6.395l5.861 17.822zm-1.867-7.261l-.764-2.913c-.178-.648-.394-1.487-.652-2.515-.253-1.027-.421-1.764-.501-2.21-.075.414-.216 1.094-.432 2.041s-.689 2.815-1.425 5.597zM78.295 28.503c0 4.02-1.28 6.736-3.836 8.134l4.333 4.986h-5.969l-3.132-3.945-.014-.014v-.014l-.014-.014c-2.785 0-4.918-.779-6.4-2.34-1.486-1.563-2.227-3.838-2.227-6.822 0-2.95.736-5.207 2.213-6.769 1.477-1.557 3.624-2.336 6.437-2.336 2.823 0 4.966.774 6.42 2.318 1.462 1.548 2.189 3.818 2.189 6.816zm-12.205 0c0 3.433 1.191 5.146 3.578 5.146 1.214 0 2.114-.418 2.7-1.248.586-.835.882-2.135.882-3.898 0-1.774-.296-3.082-.891-3.927-.595-.844-1.482-1.266-2.663-1.266-2.405-.005-3.606 1.726-3.606 5.193zM94.592 19.65v10.682c0 2.322-.656 4.123-1.974 5.395-1.312 1.276-3.211 1.909-5.682 1.909-2.42 0-4.276-.62-5.575-1.858-1.299-1.238-1.946-3.016-1.946-5.338V19.65h4.815v10.415c0 1.257.235 2.167.704 2.73.469.567 1.158.849 2.072.849.98 0 1.688-.282 2.129-.845.44-.562.66-1.482.66-2.763V19.651zM107.214 37.401l-.872-3.325h-5.762l-.9 3.326h-5.266L100.2 19.58h6.395l5.861 17.822zm-1.871-7.261l-.764-2.913c-.178-.648-.394-1.487-.652-2.515-.253-1.027-.421-1.764-.501-2.21a51.258 51.258 0 0 1-.432 2.041c-.215.948-.689 2.815-1.425 5.597z"/></g><path d="M36.777.403H0V37.2h36.777z" fill="#00b2f0"/><path clip-rule="evenodd" d="M36.777 37.195H0L36.777.403z" fill="#0385b3" fill-rule="evenodd"/><path d="M27.335 21.63v-.051c0-.033 0-.066-.005-.099-.234-7.36-8.94-14.617-8.94-14.617s-8.708 7.262-8.942 14.622c0 .033 0 .066-.005.098v.376c.094 4.86 4.065 8.772 8.946 8.772 4.881 0 8.848-3.912 8.941-8.772v-.014-.164c.005-.047.005-.1.005-.15zm-2.982.263v.01a5.928 5.928 0 0 1-1.786 4.137 5.917 5.917 0 0 1-4.178 1.707c-.29 0-.577-.018-.858-.06a11.073 11.073 0 0 0 5.331-10.86c.938 1.721 1.444 3.33 1.491 4.747V21.78z" fill="#fff"/></symbol></svg>